<svg xmlns="http://www.w3.org/2000/svg" viewBox="0 0 100 100" width="100" height="100">
  <rect width="100" height="100" rx="22" fill="white"/>
  <!-- center burst -->
  <circle cx="50" cy="50" r="4" fill="#e8779a"/>
  <!-- sparks radiating out -->
  <!-- top -->
  <line x1="50" y1="46" x2="50" y2="20" stroke="#e8779a" stroke-width="2.5" stroke-linecap="round"/>
  <circle cx="50" cy="18" r="3" fill="#e8779a"/>
  <!-- top right -->
  <line x1="52" y1="47" x2="68" y2="24" stroke="#f4a94e" stroke-width="2.5" stroke-linecap="round"/>
  <circle cx="70" cy="22" r="3" fill="#f4a94e"/>
  <!-- right -->
  <line x1="54" y1="50" x2="80" y2="50" stroke="#f9d46a" stroke-width="2.5" stroke-linecap="round"/>
  <circle cx="82" cy="50" r="3" fill="#f9d46a"/>
  <!-- bottom right -->
  <line x1="52" y1="53" x2="68" y2="76" stroke="#6dbf6d" stroke-width="2.5" stroke-linecap="round"/>
  <circle cx="70" cy="78" r="3" fill="#6dbf6d"/>
  <!-- bottom -->
  <line x1="50" y1="54" x2="50" y2="80" stroke="#5bafd4" stroke-width="2.5" stroke-linecap="round"/>
  <circle cx="50" cy="82" r="3" fill="#5bafd4"/>
  <!-- bottom left -->
  <line x1="48" y1="53" x2="32" y2="76" stroke="#a07ee0" stroke-width="2.5" stroke-linecap="round"/>
  <circle cx="30" cy="78" r="3" fill="#a07ee0"/>
  <!-- left -->
  <line x1="46" y1="50" x2="20" y2="50" stroke="#e87b9a" stroke-width="2.5" stroke-linecap="round"/>
  <circle cx="18" cy="50" r="3" fill="#e87b9a"/>
  <!-- top left -->
  <line x1="48" y1="47" x2="32" y2="24" stroke="#f97b6b" stroke-width="2.5" stroke-linecap="round"/>
  <circle cx="30" cy="22" r="3" fill="#f97b6b"/>
  <!-- secondary sparks (shorter, between main ones) -->
  <line x1="51" y1="46" x2="62" y2="30" stroke="#fbc97a" stroke-width="1.5" stroke-linecap="round"/>
  <circle cx="63" cy="28" r="2" fill="#fbc97a"/>
  <line x1="54" y1="51" x2="72" y2="62" stroke="#7dd4a0" stroke-width="1.5" stroke-linecap="round"/>
  <circle cx="73" cy="64" r="2" fill="#7dd4a0"/>
  <line x1="51" y1="54" x2="62" y2="70" stroke="#7ab8e8" stroke-width="1.5" stroke-linecap="round"/>
  <circle cx="63" cy="72" r="2" fill="#7ab8e8"/>
  <line x1="48" y1="54" x2="38" y2="70" stroke="#b48be0" stroke-width="1.5" stroke-linecap="round"/>
  <circle cx="37" cy="72" r="2" fill="#b48be0"/>
  <line x1="46" y1="51" x2="28" y2="62" stroke="#f0a0b8" stroke-width="1.5" stroke-linecap="round"/>
  <circle cx="27" cy="64" r="2" fill="#f0a0b8"/>
  <line x1="46" y1="49" x2="30" y2="36" stroke="#f9a06a" stroke-width="1.5" stroke-linecap="round"/>
  <circle cx="28" cy="34" r="2" fill="#f9a06a"/>
  <line x1="49" y1="46" x2="40" y2="28" stroke="#d4e87a" stroke-width="1.5" stroke-linecap="round"/>
  <circle cx="39" cy="26" r="2" fill="#d4e87a"/>
  <line x1="53" y1="48" x2="72" y2="38" stroke="#e8a4d4" stroke-width="1.5" stroke-linecap="round"/>
  <circle cx="74" cy="37" r="2" fill="#e8a4d4"/>
</svg>
